<svg width="375" height="812" viewBox="0 0 375 812" fill="none" xmlns="http://www.w3.org/2000/svg">
<g clip-path="url(#clip0_1111_2566)">
<rect width="375" height="812" fill="url(#paint0_linear_1111_2566)"/>
<g filter="url(#filter0_d_1111_2566)">
<rect x="359" y="467" width="221" height="250" rx="48" fill="#2F3C50"/>
<rect x="359.5" y="467.5" width="220" height="249" rx="47.5" stroke="url(#paint1_linear_1111_2566)"/>
</g>
<rect x="121" y="798" width="134" height="5" rx="2.5" fill="#AEA8B3" fill-opacity="0.2"/>
<path opacity="0.2" d="M247.247 152.009C214.658 151.586 185.465 166.547 166.147 190.243C149.24 210.987 124.129 222.81 97.7636 221.837C96.936 221.804 96.1035 221.793 95.2663 221.787C56.9889 221.76 29.2699 253.678 29.002 292.88C28.7293 332.664 56.4339 365 95.2137 365C105.796 365 115.828 362.592 124.818 358.283C150.604 345.916 179.624 346.609 205.98 357.651C218.098 362.724 232.01 364.775 245.908 364.775C303.269 364.775 347 317.142 347 258.383C347 199.994 304.245 152.74 247.247 152.003V152.009Z" fill="url(#paint2_linear_1111_2566)"/>
<path d="M78.3597 279.791C91.8853 303.937 115.283 319.053 140.911 323.198C163.344 326.824 182.701 340.272 193.18 360.074C193.507 360.696 193.852 361.313 194.204 361.931C210.436 390.092 245.677 396.925 274.62 380.477C303.993 363.786 316.01 329.683 299.545 301.164C295.052 293.382 289.022 287.026 282.036 282.245C261.993 268.533 250.18 246.897 247.111 222.827C245.697 211.761 241.298 200.66 235.397 190.439C211.042 148.256 157.445 136.32 114.234 161.268C71.2944 186.059 54.6971 237.565 78.3557 279.793L78.3597 279.791Z" fill="url(#paint3_linear_1111_2566)"/>
<path d="M216.407 256.315C216.407 256.315 218.739 261.409 218.311 263.313C217.882 265.217 214.283 268.188 211.95 268.826C209.618 269.464 207.285 265.855 206.228 263.104C205.172 260.342 202.619 255.258 204.743 253.344C206.866 251.44 214.712 252.706 216.407 256.315Z" fill="#F6BA99"/>
<path d="M218.31 195.014C218.31 195.014 218.31 205.193 219.366 214.744C220.423 224.284 222.756 231.711 221.49 237.433C220.224 243.155 217.881 255.677 216.396 256.315C214.91 256.953 214.492 254.191 211.092 254.191C207.692 254.191 204.941 255.886 204.941 255.886C204.941 255.886 204.941 245.708 205.37 235.738C205.799 225.769 202.399 214.105 206.217 208.373C210.035 202.651 212.797 199.251 214.063 197.347C215.339 195.443 218.31 195.014 218.31 195.014Z" fill="#9985FF"/>
<path d="M202.828 298.315C202.828 298.315 196.248 299.8 195.401 299.8C194.554 299.8 196.887 292.164 196.887 292.164C196.887 292.164 199.857 292.373 200.705 293.649C201.552 294.926 202.828 298.315 202.828 298.315Z" fill="#39374A"/>
<path d="M178.863 287.917C178.863 287.917 179.072 305.732 179.291 311.673C179.511 317.615 180.139 339.886 179.72 344.761C179.302 349.636 178.026 356.006 179.082 359.187C180.139 362.367 184.804 359.825 188.204 355.578C191.593 351.33 196.688 330.126 196.688 325.67C196.688 321.214 195.84 307.855 196.688 302.761C197.535 297.666 199.23 290.459 199.23 289.821C199.23 289.183 193.717 284.099 187.137 284.099C180.557 284.099 178.863 287.917 178.863 287.917Z" fill="#F6BA99"/>
<path d="M158.715 294.497C158.715 294.497 159.562 304.884 161.048 308.922C162.533 312.96 170.588 317.406 173.778 313.797C176.959 310.188 178.444 300.648 178.026 300.01C177.607 299.372 158.725 294.497 158.725 294.497H158.715Z" fill="#F6BA99"/>
<path d="M157.23 267.131C157.23 267.131 157.659 277.948 157.23 284.946C156.801 291.944 156.801 296.401 156.801 296.401C156.801 296.401 162.523 300.219 168.046 301.066C173.559 301.914 178.015 300.01 178.015 300.01L178.225 295.344C178.225 295.344 182.681 291.526 188.194 292.164C193.707 292.802 202.828 298.315 202.828 298.315C202.828 298.315 203.676 284.109 204.523 277.32C205.37 270.531 203.247 262.257 203.247 262.257L157.219 267.131H157.23Z" fill="#393762"/>
<path d="M172.921 185.265C172.921 185.265 153.411 188.654 151.078 190.569C148.746 192.472 132.625 225.78 132.197 230.864C131.768 235.958 138.776 238.5 142.166 237.224C145.555 235.948 156.372 217.286 156.372 217.286C156.372 217.286 153.191 266.912 155.315 269.255C157.439 271.588 182.461 273.282 189.888 273.282C197.315 273.282 203.675 271.159 204.523 270.102C205.37 269.046 205.161 251.22 206.008 244.86C206.855 238.5 207.912 213.258 208.55 211.563C209.188 209.869 215.339 203.927 217.463 199.9C219.586 195.872 218.519 192.054 215.13 190.569C211.741 189.083 200.704 185.694 196.886 185.903C193.068 186.112 178.862 183.999 172.921 185.265Z" fill="#8168FF"/>
<path d="M165.923 171.049C165.923 171.049 168.256 168.078 177.168 166.383C186.081 164.689 191.803 164.689 196.468 166.592C201.134 168.496 205.59 168.716 205.161 170.839C204.732 172.963 203.676 180.171 200.705 183.351C197.734 186.531 192.221 189.073 185.861 188.445C179.501 187.807 173.559 185.265 170.588 182.723C167.618 180.181 165.923 171.059 165.923 171.059V171.049Z" fill="#4D81B5"/>
<path d="M185.945 152.272C182.712 153.035 179.658 155.305 178.099 158.046C174.752 163.935 176.718 171.436 178.026 177.629C178.873 181.656 183.748 185.265 186.3 185.903C188.842 186.541 195.213 184.418 196.479 182.085C197.755 179.752 198.173 173.601 198.173 168.298C198.173 163.642 197.242 157.795 193.832 154.311C191.646 152.073 188.738 151.623 185.955 152.272H185.945Z" fill="#F6BA99"/>
<path d="M185.944 152.272C182.712 153.035 179.657 155.305 178.099 158.046C175.672 162.324 176.048 167.44 176.927 172.294C178.81 169.908 182.712 165.787 187.775 164.898C193.298 163.925 196.206 167.921 198.121 171.091C198.152 170.149 198.163 169.208 198.163 168.298C198.163 163.642 197.232 157.795 193.821 154.311C191.635 152.073 188.727 151.623 185.944 152.272Z" fill="#DA5955"/>
<path d="M165.922 171.049C166.33 169.888 169.741 175.076 175.044 178.476C180.348 181.876 183.528 183.779 188.622 184.418C193.717 185.056 198.382 179.961 200.495 176.99C202.619 174.02 204.104 169.354 205.161 170.839C206.217 172.325 204.314 184.627 203.466 187.388C202.619 190.15 192.65 192.483 189.041 192.483C185.432 192.483 178.643 191.426 172.282 188.665C165.922 185.903 163.37 178.277 165.922 171.059V171.049Z" fill="#9985FF"/>
<path d="M174.197 228.102C174.197 228.102 178.224 227.893 179.072 228.102C179.919 228.311 180.975 229.378 179.919 230.226C178.862 231.073 176.948 231.502 175.891 231.711C174.835 231.92 174.197 228.102 174.197 228.102Z" fill="#F6BA99"/>
<path d="M161.675 231.293C161.675 231.293 167.188 227.474 168.036 226.418C168.883 225.361 170.578 225.989 172.701 226.847C174.825 227.694 177.367 229.608 177.158 230.874C176.948 232.15 176.101 237.025 173.977 237.663C171.854 238.301 168.674 237.025 168.674 237.025C168.674 237.025 167.617 238.51 165.703 239.149C163.799 239.787 161.247 237.872 160.608 237.663C159.97 237.454 161.665 231.303 161.665 231.303L161.675 231.293Z" fill="#F6BA99"/>
<path d="M140.68 224.713C140.68 224.713 148.108 227.255 153.192 228.74C158.286 230.226 163.37 230.435 162.732 231.711C162.094 232.987 157.637 243.804 157.637 243.804C157.637 243.804 140.032 242.747 134.31 241.471C128.588 240.195 126.883 234.891 128.588 231.502C130.282 228.112 135.586 222.809 135.586 222.809" fill="#9985FF"/>
<path opacity="0.1" d="M186.499 192.263L184.584 272.644" stroke="white" stroke-width="0.5" stroke-miterlimit="10"/>
<path d="M178.225 295.344L179.71 276.682" stroke="#393762" stroke-width="0.5" stroke-miterlimit="10"/>
<path d="M188.832 351.759C188.832 351.759 185.442 347.941 183.319 347.941C181.195 347.941 176.958 353.454 176.32 357.91C175.682 362.367 176.958 363.423 176.32 365.118C175.682 366.812 174.417 367.022 174.417 368.936C174.417 370.85 177.597 372.754 179.929 371.698C182.262 370.641 186.08 367.032 188.622 360.881C191.164 354.73 188.832 351.759 188.832 351.759Z" fill="#DA5955"/>
</g>
<defs>
<filter id="filter0_d_1111_2566" x="347" y="459" width="245" height="274" filterUnits="userSpaceOnUse" color-interpolation-filters="sRGB">
<feFlood flood-opacity="0" result="BackgroundImageFix"/>
<feColorMatrix in="SourceAlpha" type="matrix" values="0 0 0 0 0 0 0 0 0 0 0 0 0 0 0 0 0 0 127 0" result="hardAlpha"/>
<feOffset dy="4"/>
<feGaussianBlur stdDeviation="6"/>
<feColorMatrix type="matrix" values="0 0 0 0 0.109804 0 0 0 0 0.145098 0 0 0 0 0.172549 0 0 0 0.05 0"/>
<feBlend mode="normal" in2="BackgroundImageFix" result="effect1_dropShadow_1111_2566"/>
<feBlend mode="normal" in="SourceGraphic" in2="effect1_dropShadow_1111_2566" result="shape"/>
</filter>
<linearGradient id="paint0_linear_1111_2566" x1="187.5" y1="0" x2="187.5" y2="812" gradientUnits="userSpaceOnUse">
<stop stop-color="#0D57A2"/>
<stop offset="1" stop-color="#7DADDF"/>
</linearGradient>
<linearGradient id="paint1_linear_1111_2566" x1="371.436" y1="476.076" x2="690.055" y2="765.007" gradientUnits="userSpaceOnUse">
<stop stop-color="white" stop-opacity="0.17"/>
<stop offset="1" stop-color="white" stop-opacity="0"/>
</linearGradient>
<linearGradient id="paint2_linear_1111_2566" x1="34.5" y1="148.5" x2="188" y2="365" gradientUnits="userSpaceOnUse">
<stop stop-color="#BC3EDB"/>
<stop offset="1" stop-color="#7B61FF" stop-opacity="0"/>
</linearGradient>
<linearGradient id="paint3_linear_1111_2566" x1="20.2934" y1="371.41" x2="260.149" y2="232.929" gradientUnits="userSpaceOnUse">
<stop stop-color="#7B61FF"/>
<stop offset="1" stop-color="#7B61FF" stop-opacity="0"/>
</linearGradient>
<clipPath id="clip0_1111_2566">
<rect width="375" height="812" fill="white"/>
</clipPath>
</defs>
</svg>
