<svg width="32" height="32" viewBox="0 0 32 32" fill="none" xmlns="http://www.w3.org/2000/svg">
<path d="M21.3334 11.6666C20.7867 11.6666 20.3334 11.2133 20.3334 10.6666V5.99996C20.3334 4.55996 19.4401 3.66663 18.0001 3.66663H14.0001C12.5601 3.66663 11.6667 4.55996 11.6667 5.99996V10.6666C11.6667 11.2133 11.2134 11.6666 10.6667 11.6666C10.1201 11.6666 9.66675 11.2133 9.66675 10.6666V5.99996C9.66675 3.45329 11.4534 1.66663 14.0001 1.66663H18.0001C20.5467 1.66663 22.3334 3.45329 22.3334 5.99996V10.6666C22.3334 11.2133 21.8801 11.6666 21.3334 11.6666Z" fill="white"/>
<path d="M10.6668 23.7066C10.1201 23.7066 9.66678 23.2533 9.66678 22.7066C9.66678 22.1466 10.1201 21.7066 10.6668 21.7066H26.3468C26.7468 21.7066 27.0535 21.36 27.0135 20.96L26.1068 13.3733C25.7868 10.7866 25.3335 8.66663 20.8001 8.66663H11.2001C6.66678 8.66663 6.21345 10.7866 5.90678 13.3733L4.70678 23.3733C4.32012 26.6533 5.33345 29.3333 10.0135 29.3333H21.9868C26.2001 29.3333 27.4401 27.16 27.3735 24.3333C27.3601 23.9733 27.0668 23.7066 26.7068 23.7066H10.6668Z" fill="white"/>
</svg>
