<svg width="48" height="48" viewBox="0 0 48 48" fill="none" xmlns="http://www.w3.org/2000/svg">
<g clip-path="url(#clip0_1397_7514)">
<path d="M40.6667 40.6667C49.8715 31.4619 49.8715 16.5381 40.6667 7.33334C31.462 -1.8714 16.5381 -1.8714 7.3334 7.33335C-1.87135 16.5381 -1.87133 31.4619 7.33342 40.6667C16.5382 49.8714 31.462 49.8714 40.6667 40.6667Z" fill="url(#paint0_linear_1397_7514)"/>
<g style="mix-blend-mode:soft-light" opacity="0.4">
<path d="M16.9937 40.9516C19.694 43.2134 33.0727 41.6439 30.1392 39.0326C27.2058 36.4213 23.7446 34.7284 21.4623 35.6399C19.1869 36.5583 15.6914 39.855 16.9937 40.9516Z" fill="#F7FFFF"/>
</g>
<path opacity="0.4" d="M10.2798 25.5939C13.2201 29.3635 14.1385 37.1083 10.2798 35.3948C6.4211 33.6814 3.43282 22.3589 5.85221 22.914C8.27161 23.4692 9.44362 24.5247 10.2798 25.5939Z" fill="#D7C3DC"/>
<path opacity="0.4" d="M34.1105 27.4373C33.6513 32.8244 36.1598 36.2033 39.011 33.6743C41.8553 31.1384 43.3015 25.8198 41.8964 24.3326C40.4914 22.8453 34.323 25.0385 34.1173 27.4373H34.1105Z" fill="#D7C3DC"/>
<path d="M41.8383 18.1556L35.3584 17.2118L33.5886 16.9576L29.3867 16.3405L23.8234 5.05969L18.2511 16.3405L5.80859 18.1556L14.8115 26.9316L12.6878 39.3287L23.8234 33.475L34.959 39.3287L32.8263 26.9316L41.8383 18.1556Z" fill="#71647E"/>
<path style="mix-blend-mode:multiply" opacity="0.5" d="M5.74512 18.1559L24.0776 22.9477L14.748 26.9319L5.74512 18.1559Z" fill="url(#paint1_linear_1397_7514)"/>
<path style="mix-blend-mode:multiply" opacity="0.5" d="M41.7746 18.1559L24.0774 22.9477L32.7626 26.9319L41.7746 18.1559Z" fill="url(#paint2_linear_1397_7514)"/>
<path opacity="0.5" d="M23.7599 33.4751L24.0775 22.9475L12.6243 39.3288L23.7599 33.4751Z" fill="#451F47"/>
<path opacity="0.7" d="M34.8863 39.3288L24.0774 22.9475L23.7598 33.4751L34.8863 39.3288Z" fill="#451F47"/>
<path style="mix-blend-mode:color-dodge" opacity="0.5" d="M23.7598 5.05969L24.0774 22.9475L29.323 16.3405L23.7598 5.05969Z" fill="url(#paint3_linear_1397_7514)"/>
<path style="mix-blend-mode:color-dodge" opacity="0.5" d="M41.7746 18.1558L24.0774 22.9476L29.323 16.3407L41.7746 18.1558Z" fill="url(#paint4_linear_1397_7514)"/>
<path style="mix-blend-mode:color-dodge" opacity="0.5" d="M18.1876 16.3407L24.0776 22.9476L5.74512 18.1558L18.1876 16.3407Z" fill="url(#paint5_linear_1397_7514)"/>
<path opacity="0.3" d="M19.6307 16.3314C19.5127 18.9905 23.1611 20.0977 23.3971 19.0903C23.6239 18.092 23.3426 10.8044 22.4713 11.1856C21.6001 11.5667 19.667 15.5872 19.6307 16.3314V16.3314Z" fill="#51385B"/>
<path style="mix-blend-mode:multiply" opacity="0.5" d="M12.6877 39.3288L24.0775 22.9475L34.8864 39.3288L24.0775 37.0599L12.6877 39.3288Z" fill="url(#paint6_linear_1397_7514)"/>
<path d="M26.5369 22.1938C27.7621 19.5528 32.926 20.5421 32.926 20.5421L26.5369 22.1938Z" fill="white" fill-opacity="0.3"/>
<path style="mix-blend-mode:multiply" opacity="0.5" d="M5.74512 18.1559L13.7769 32.9852L16.7718 26.0697L5.74512 18.1559Z" fill="url(#paint7_linear_1397_7514)"/>
<path style="mix-blend-mode:multiply" opacity="0.5" d="M41.7748 18.1559L30.1038 25.7067L33.9881 33.7113L41.7748 18.1559Z" fill="url(#paint8_linear_1397_7514)"/>
<path opacity="0.3" d="M17.2162 26.4689C15.2831 27.1858 14.7477 33.8109 15.3376 34.056C15.9275 34.301 25.003 23.5829 17.2162 26.4689Z" fill="#51385B"/>
</g>
<defs>
<linearGradient id="paint0_linear_1397_7514" x1="23.9971" y1="6.47625" x2="23.9971" y2="86.8165" gradientUnits="userSpaceOnUse">
<stop stop-color="#9A8EA0"/>
<stop offset="1" stop-color="#9B8EA0"/>
</linearGradient>
<linearGradient id="paint1_linear_1397_7514" x1="5.74512" y1="22.5393" x2="24.0776" y2="22.5393" gradientUnits="userSpaceOnUse">
<stop stop-color="#E8ACE4"/>
<stop offset="1" stop-color="#705AB5"/>
</linearGradient>
<linearGradient id="paint2_linear_1397_7514" x1="24.0774" y1="-68.3879" x2="41.7746" y2="-68.3879" gradientUnits="userSpaceOnUse">
<stop stop-color="#E8ACE4"/>
<stop offset="1" stop-color="#705AB5"/>
</linearGradient>
<linearGradient id="paint3_linear_1397_7514" x1="25.0031" y1="13.6542" x2="17.3162" y2="28.3927" gradientUnits="userSpaceOnUse">
<stop stop-color="#95A8CF"/>
<stop offset="1"/>
</linearGradient>
<linearGradient id="paint4_linear_1397_7514" x1="34.0604" y1="18.3827" x2="26.3735" y2="33.1122" gradientUnits="userSpaceOnUse">
<stop stop-color="#95A8CF"/>
<stop offset="1"/>
</linearGradient>
<linearGradient id="paint5_linear_1397_7514" x1="19.8938" y1="10.9952" x2="12.2069" y2="25.7247" gradientUnits="userSpaceOnUse">
<stop stop-color="#95A8CF"/>
<stop offset="1"/>
</linearGradient>
<linearGradient id="paint6_linear_1397_7514" x1="12.6877" y1="31.1427" x2="34.8864" y2="31.1427" gradientUnits="userSpaceOnUse">
<stop stop-color="#662D87"/>
<stop offset="1" stop-color="#D01C5C"/>
</linearGradient>
<linearGradient id="paint7_linear_1397_7514" x1="5.74512" y1="25.5706" x2="16.7718" y2="25.5706" gradientUnits="userSpaceOnUse">
<stop stop-color="#662D87"/>
<stop offset="1" stop-color="#D01C5C"/>
</linearGradient>
<linearGradient id="paint8_linear_1397_7514" x1="30.1038" y1="25.9336" x2="41.7748" y2="25.9336" gradientUnits="userSpaceOnUse">
<stop stop-color="#662D87"/>
<stop offset="1" stop-color="#D01C5C"/>
</linearGradient>
<clipPath id="clip0_1397_7514">
<rect width="48" height="48" fill="white"/>
</clipPath>
</defs>
</svg>
