<svg width="30" height="24" viewBox="0 0 30 24" fill="none" xmlns="http://www.w3.org/2000/svg">
<path d="M16.5844 2.53619L15.4781 0.295568C15.2953 -0.0934947 14.7234 -0.107557 14.5219 0.295568L13.4156 2.53619L10.9641 2.88776C10.5281 2.95338 10.3406 3.49244 10.6641 3.81588L12.4453 5.55026L12.0234 7.99244C11.9578 8.42838 12.4078 8.76588 12.8109 8.56432L15.0094 7.40182L17.1937 8.54557C17.5969 8.74713 18.0516 8.40963 17.9813 7.97369L17.5594 5.53151L19.3406 3.81588C19.6594 3.49713 19.4766 2.95807 19.0406 2.88776L16.5891 2.53619H16.5844ZM12 12.0003C11.1703 12.0003 10.5 12.6706 10.5 13.5003V22.5003C10.5 23.3299 11.1703 24.0003 12 24.0003H18C18.8297 24.0003 19.5 23.3299 19.5 22.5003V13.5003C19.5 12.6706 18.8297 12.0003 18 12.0003H12ZM1.5 15.0003C0.670312 15.0003 0 15.6706 0 16.5003V22.5003C0 23.3299 0.670312 24.0003 1.5 24.0003H7.5C8.32969 24.0003 9 23.3299 9 22.5003V16.5003C9 15.6706 8.32969 15.0003 7.5 15.0003H1.5ZM21 19.5003V22.5003C21 23.3299 21.6703 24.0003 22.5 24.0003H28.5C29.3297 24.0003 30 23.3299 30 22.5003V19.5003C30 18.6706 29.3297 18.0003 28.5 18.0003H22.5C21.6703 18.0003 21 18.6706 21 19.5003Z" fill="#222260"/>
</svg>
